<svg width="170" height="54" viewBox="0 0 170 54" fill="none" xmlns="http://www.w3.org/2000/svg">
<path d="M11.041 23V16.5273C11.041 16.1041 11.0119 15.6352 10.9538 15.1207C10.8958 14.6062 10.7588 14.1124 10.5431 13.6394C10.3356 13.1581 10.0203 12.764 9.59706 12.4569C9.18214 12.1499 8.61785 11.9964 7.90419 11.9964C7.52247 11.9964 7.14489 12.0586 6.77147 12.1831C6.39804 12.3076 6.05781 12.5233 5.75077 12.8304C5.45203 13.1291 5.21137 13.544 5.02881 14.0751C4.84625 14.5979 4.75496 15.2701 4.75496 16.0916L2.97496 15.3323C2.97496 14.1871 3.19487 13.1498 3.63468 12.2204C4.0828 11.291 4.73837 10.5524 5.6014 10.0048C6.46443 9.44877 7.52662 9.17077 8.78797 9.17077C9.78377 9.17077 10.6053 9.33674 11.2526 9.66867C11.8999 10.0006 12.4144 10.4238 12.7961 10.9383C13.1778 11.4528 13.46 12.0005 13.6425 12.5814C13.8251 13.1623 13.9413 13.7141 13.991 14.2369C14.0491 14.7514 14.0782 15.1705 14.0782 15.4941V23H11.041ZM1.71776 23V9.55665H4.39399V13.7266H4.75496V23H1.71776ZM23.1892 23.3734C22.0025 23.3734 20.9486 23.1328 20.0275 22.6515C19.1064 22.1702 18.3844 21.5021 17.8617 20.6474C17.3389 19.7927 17.0775 18.8135 17.0775 17.7098C17.0775 16.7223 17.3057 15.8053 17.7621 14.9589C18.2185 14.1124 18.8865 13.4361 19.7661 12.9299L19.7039 13.8884C19.0151 13.3656 18.4799 12.764 18.0982 12.0835C17.7247 11.3947 17.538 10.623 17.538 9.76825C17.538 8.73926 17.7787 7.84718 18.26 7.09203C18.7496 6.33688 19.4176 5.75184 20.264 5.33693C21.1105 4.91371 22.0855 4.7021 23.1892 4.7021C24.2929 4.7021 25.2679 4.91371 26.1144 5.33693C26.9691 5.75184 27.6371 6.33688 28.1184 7.09203C28.608 7.84718 28.8528 8.73926 28.8528 9.76825C28.8528 10.623 28.6703 11.3906 28.3051 12.0711C27.9483 12.7515 27.4048 13.3656 26.6745 13.9133L26.6621 12.9424C27.5251 13.432 28.1848 14.1042 28.6412 14.9589C29.1059 15.8053 29.3383 16.7223 29.3383 17.7098C29.3383 18.8135 29.0727 19.7927 28.5416 20.6474C28.0189 21.5021 27.2927 22.1702 26.3633 22.6515C25.4422 23.1328 24.3842 23.3734 23.1892 23.3734ZM23.1892 20.5478C24.0688 20.5478 24.7825 20.3072 25.3302 19.8259C25.8862 19.3446 26.1642 18.6392 26.1642 17.7098C26.1642 16.7804 25.8903 16.075 25.3426 15.5937C24.7949 15.1041 24.0771 14.8593 23.1892 14.8593C22.3096 14.8593 21.6001 15.1041 21.0607 15.5937C20.5213 16.075 20.2516 16.7804 20.2516 17.7098C20.2516 18.6392 20.5213 19.3446 21.0607 19.8259C21.6001 20.3072 22.3096 20.5478 23.1892 20.5478ZM23.1892 12.0088C23.9278 12.0088 24.5252 11.8262 24.9816 11.4611C25.4464 11.0877 25.6787 10.5234 25.6787 9.76825C25.6787 9.0131 25.4464 8.45296 24.9816 8.08783C24.5252 7.71441 23.9278 7.5277 23.1892 7.5277C22.4589 7.5277 21.8615 7.71441 21.3968 8.08783C20.9403 8.45296 20.7121 9.0131 20.7121 9.76825C20.7121 10.5234 20.9403 11.0877 21.3968 11.4611C21.8615 11.8262 22.4589 12.0088 23.1892 12.0088ZM41.8681 23V16.5273C41.8681 16.1041 41.8391 15.6352 41.781 15.1207C41.7229 14.6062 41.586 14.1124 41.3702 13.6394C41.1628 13.1581 40.8474 12.764 40.4242 12.4569C40.0093 12.1499 39.445 11.9964 38.7313 11.9964C38.3496 11.9964 37.972 12.0586 37.5986 12.1831C37.2252 12.3076 36.8849 12.5233 36.5779 12.8304C36.2792 13.1291 36.0385 13.544 35.8559 14.0751C35.6734 14.5979 35.5821 15.2701 35.5821 16.0916L33.8021 15.3323C33.8021 14.1871 34.022 13.1498 34.4618 12.2204C34.9099 11.291 35.5655 10.5524 36.4285 10.0048C37.2916 9.44877 38.3538 9.17077 39.6151 9.17077C40.6109 9.17077 41.4324 9.33674 42.0797 9.66867C42.727 10.0006 43.2415 10.4238 43.6232 10.9383C44.0049 11.4528 44.2871 12.0005 44.4697 12.5814C44.6522 13.1623 44.7684 13.7141 44.8182 14.2369C44.8763 14.7514 44.9053 15.1705 44.9053 15.4941V23H41.8681ZM32.5449 23V9.55665H35.2211V13.7266H35.5821V23H32.5449ZM56.9215 23L51.6811 5.07553H54.8303L58.4027 18.021L61.9627 5.10042L65.112 5.07553L68.6844 18.021L72.2444 5.07553H75.3936L70.1657 23H67.2032L63.5311 10.2537L59.884 23H56.9215ZM81.8792 23.3734C80.5349 23.3734 79.3607 23.0705 78.3565 22.4648C77.3524 21.859 76.5724 21.025 76.0164 19.9628C75.4687 18.8923 75.1949 17.6642 75.1949 16.2783C75.1949 14.8676 75.477 13.6311 76.0413 12.569C76.6056 11.5068 77.3898 10.6769 78.3939 10.0794C79.398 9.48196 80.5598 9.18322 81.8792 9.18322C83.2318 9.18322 84.4102 9.48611 85.4143 10.0919C86.4184 10.6977 87.1985 11.5358 87.7544 12.6063C88.3104 13.6685 88.5884 14.8925 88.5884 16.2783C88.5884 17.6724 88.3063 18.9048 87.742 19.9752C87.186 21.0374 86.406 21.8714 85.4019 22.4772C84.3978 23.0747 83.2235 23.3734 81.8792 23.3734ZM81.8792 20.5603C83.0742 20.5603 83.9621 20.162 84.543 19.3653C85.1239 18.5687 85.4143 17.5397 85.4143 16.2783C85.4143 14.9755 85.1197 13.9382 84.5305 13.1664C83.9413 12.3864 83.0576 11.9964 81.8792 11.9964C81.0743 11.9964 80.4104 12.1789 79.8876 12.5441C79.3731 12.9009 78.9914 13.4029 78.7424 14.0502C78.4935 14.6892 78.369 15.4319 78.369 16.2783C78.369 17.5812 78.6636 18.6226 79.2528 19.4027C79.8503 20.1744 80.7257 20.5603 81.8792 20.5603ZM91.331 23V9.55665H93.9823V12.8304L93.6587 12.4071C93.8246 11.959 94.0445 11.5524 94.3184 11.1873C94.6005 10.8138 94.9366 10.5068 95.3266 10.2662C95.6586 10.0421 96.0237 9.86783 96.422 9.74336C96.8287 9.61058 97.2436 9.53175 97.6668 9.50685C98.09 9.47366 98.5008 9.49026 98.8991 9.55665V12.3573C98.5008 12.2412 98.0402 12.2038 97.5174 12.2453C97.0029 12.2868 96.5382 12.432 96.1233 12.681C95.7084 12.905 95.3681 13.1913 95.1026 13.5399C94.8453 13.8884 94.6545 14.2867 94.53 14.7348C94.4055 15.1746 94.3433 15.6518 94.3433 16.1663V23H91.331ZM101.25 23L101.274 5.07553H104.312V16.0294L109.228 9.55665H112.975L107.76 16.2783L113.423 23H109.452L104.312 16.5273V23H101.25ZM121.89 11.9092V9.55665H125.251V11.9092H121.89ZM115.84 23V9.34504C115.84 9.0048 115.853 8.63138 115.878 8.22476C115.902 7.80984 115.973 7.39907 116.089 6.99245C116.205 6.58583 116.417 6.21655 116.724 5.88462C117.106 5.4614 117.516 5.17096 117.956 5.01329C118.404 4.84732 118.844 4.75604 119.276 4.73944C119.707 4.71455 120.085 4.7021 120.408 4.7021H122.089V7.14182H120.533C119.96 7.14182 119.533 7.28704 119.251 7.57748C118.977 7.85963 118.84 8.23306 118.84 8.69776V23H115.84ZM113.674 11.9092V9.55665H122.089V11.9092H113.674ZM125.101 23V4.7021H128.101V23H125.101ZM137.772 23.3734C136.427 23.3734 135.253 23.0705 134.249 22.4648C133.245 21.859 132.465 21.025 131.909 19.9628C131.361 18.8923 131.087 17.6642 131.087 16.2783C131.087 14.8676 131.369 13.6311 131.934 12.569C132.498 11.5068 133.282 10.6769 134.286 10.0794C135.29 9.48196 136.452 9.18322 137.772 9.18322C139.124 9.18322 140.303 9.48611 141.307 10.0919C142.311 10.6977 143.091 11.5358 143.647 12.6063C144.203 13.6685 144.481 14.8925 144.481 16.2783C144.481 17.6724 144.199 18.9048 143.634 19.9752C143.078 21.0374 142.298 21.8714 141.294 22.4772C140.29 23.0747 139.116 23.3734 137.772 23.3734ZM137.772 20.5603C138.967 20.5603 139.855 20.162 140.435 19.3653C141.016 18.5687 141.307 17.5397 141.307 16.2783C141.307 14.9755 141.012 13.9382 140.423 13.1664C139.834 12.3864 138.95 11.9964 137.772 11.9964C136.967 11.9964 136.303 12.1789 135.78 12.5441C135.266 12.9009 134.884 13.4029 134.635 14.0502C134.386 14.6892 134.261 15.4319 134.261 16.2783C134.261 17.5812 134.556 18.6226 135.145 19.4027C135.743 20.1744 136.618 20.5603 137.772 20.5603ZM149.6 23L145.492 9.53175L148.43 9.55665L151.056 18.1828L153.72 9.55665H156.247L158.898 18.1828L161.537 9.55665H164.475L160.367 23H158.027L154.977 13.7515L151.94 23H149.6ZM1.74266 50V32.0755H8.85021C10.0618 32.0755 11.0534 32.3203 11.8252 32.8099C12.6052 33.2912 13.182 33.9095 13.5554 34.6646C13.9371 35.4198 14.128 36.1998 14.128 37.0048C14.128 37.9923 13.8915 38.8304 13.4185 39.5192C12.9538 40.2079 12.3189 40.6726 11.514 40.9133V40.2909C12.6426 40.5482 13.4973 41.0834 14.0782 41.8966C14.6674 42.7099 14.962 43.6352 14.962 44.6724C14.962 45.7346 14.7586 46.6641 14.352 47.4607C13.9454 48.2573 13.3396 48.8797 12.5347 49.3278C11.738 49.7759 10.7505 50 9.57217 50H1.74266ZM4.77986 47.1744H9.19874C9.72154 47.1744 10.1904 47.0707 10.6053 46.8632C11.0202 46.6475 11.3439 46.3487 11.5762 45.967C11.8169 45.577 11.9372 45.1164 11.9372 44.5853C11.9372 44.104 11.8335 43.6725 11.626 43.2908C11.4186 42.909 11.1157 42.6062 10.7173 42.3821C10.319 42.1497 9.84186 42.0336 9.28587 42.0336H4.77986V47.1744ZM4.77986 39.2329H8.81287C9.24438 39.2329 9.63026 39.1499 9.97049 38.9839C10.3107 38.818 10.5804 38.5731 10.7796 38.2495C10.9787 37.9259 11.0783 37.5276 11.0783 37.0545C11.0783 36.4322 10.8792 35.9135 10.4808 35.4986C10.0825 35.0837 9.52653 34.8762 8.81287 34.8762H4.77986V39.2329ZM22.4892 50.3859C21.4934 50.3859 20.6719 50.2199 20.0246 49.888C19.3773 49.556 18.8628 49.1328 18.4811 48.6183C18.0994 48.1038 17.8172 47.5561 17.6347 46.9752C17.4521 46.3944 17.3318 45.8467 17.2737 45.3322C17.2239 44.8094 17.199 44.3862 17.199 44.0625V36.5566H20.2362V43.0294C20.2362 43.4443 20.2653 43.9131 20.3233 44.4359C20.3814 44.9504 20.5142 45.4483 20.7217 45.9297C20.9374 46.4027 21.2528 46.7927 21.6677 47.0997C22.0909 47.4068 22.6593 47.5603 23.373 47.5603C23.7547 47.5603 24.1323 47.498 24.5057 47.3736C24.8792 47.2491 25.2152 47.0375 25.514 46.7387C25.821 46.4317 26.0658 46.0126 26.2484 45.4815C26.4309 44.9504 26.5222 44.2783 26.5222 43.465L28.3022 44.2243C28.3022 45.3695 28.0782 46.4068 27.6301 47.3362C27.1902 48.2656 26.5388 49.0083 25.6758 49.5643C24.8128 50.112 23.7506 50.3859 22.4892 50.3859ZM26.8832 50V45.8301H26.5222V36.5566H29.5345V50H26.8832ZM33.2807 34.5152V31.7643H36.2805V34.5152H33.2807ZM33.2807 50V36.5566H36.2805V50H33.2807ZM40.2581 50V31.7021H43.258V50H40.2581ZM52.3764 50.3734C51.1399 50.3734 50.0611 50.0622 49.14 49.4399C48.2189 48.8175 47.5052 47.971 46.999 46.9006C46.4928 45.8301 46.2397 44.6227 46.2397 43.2783C46.2397 41.9174 46.4928 40.7058 46.999 39.6436C47.5135 38.5731 48.2396 37.7309 49.1774 37.1168C50.1151 36.4944 51.2188 36.1832 52.4884 36.1832C53.7664 36.1832 54.8368 36.4944 55.6999 37.1168C56.5712 37.7309 57.2309 38.5731 57.679 39.6436C58.1271 40.7141 58.3512 41.9257 58.3512 43.2783C58.3512 44.6144 58.1271 45.8218 57.679 46.9006C57.2309 47.971 56.5629 48.8175 55.675 49.4399C54.787 50.0622 53.6875 50.3734 52.3764 50.3734ZM52.8369 47.6848C53.6419 47.6848 54.2891 47.5022 54.7788 47.1371C55.2767 46.7636 55.6376 46.245 55.8617 45.5811C56.094 44.9173 56.2102 44.1497 56.2102 43.2783C56.2102 42.3987 56.094 41.6311 55.8617 40.9755C55.6376 40.3117 55.285 39.7972 54.8036 39.432C54.3223 39.0586 53.7 38.8719 52.9365 38.8719C52.1316 38.8719 51.4677 39.0711 50.9449 39.4694C50.4221 39.8594 50.0362 40.3905 49.7873 41.0627C49.5383 41.7265 49.4139 42.4651 49.4139 43.2783C49.4139 44.0999 49.5342 44.8467 49.7748 45.5189C50.0238 46.1828 50.4014 46.7097 50.9076 47.0997C51.4138 47.4897 52.0569 47.6848 52.8369 47.6848ZM56.2102 50V40.5648H55.8368V32.0755H58.8615V50H56.2102ZM68.4633 50.3734C67.1023 50.3734 65.9074 50.0788 64.8784 49.4897C63.8494 48.9005 63.0444 48.0831 62.4636 47.0375C61.891 45.9919 61.6047 44.7886 61.6047 43.4277C61.6047 41.9589 61.8868 40.6851 62.4511 39.6063C63.0154 38.5192 63.7996 37.6769 64.8037 37.0794C65.8078 36.482 66.9696 36.1832 68.289 36.1832C69.6831 36.1832 70.8657 36.511 71.8366 37.1666C72.8158 37.8138 73.5419 38.7308 74.0149 39.9175C74.4879 41.1042 74.6663 42.5024 74.5501 44.1123H71.5752V43.0169C71.5669 41.5564 71.3096 40.4901 70.8034 39.8179C70.2972 39.1457 69.5006 38.8097 68.4135 38.8097C67.1853 38.8097 66.2725 39.1914 65.675 39.9548C65.0775 40.71 64.7788 41.8178 64.7788 43.2783C64.7788 44.6393 65.0775 45.6931 65.675 46.44C66.2725 47.1869 67.1438 47.5603 68.289 47.5603C69.0276 47.5603 69.6624 47.3985 70.1935 47.0748C70.7329 46.7429 71.1478 46.2657 71.4382 45.6434L74.4008 46.5396C73.8863 47.7511 73.0896 48.693 72.0108 49.3652C70.9403 50.0373 69.7578 50.3734 68.4633 50.3734ZM63.8328 44.1123V41.8469H73.0813V44.1123H63.8328ZM77.3275 50V36.5566H79.9788V39.8304L79.6552 39.4071C79.8211 38.959 80.0411 38.5524 80.3149 38.1873C80.597 37.8138 80.9331 37.5068 81.3232 37.2662C81.6551 37.0421 82.0202 36.8678 82.4185 36.7434C82.8252 36.6106 83.2401 36.5317 83.6633 36.5069C84.0865 36.4737 84.4973 36.4903 84.8956 36.5566V39.3573C84.4973 39.2412 84.0367 39.2038 83.5139 39.2453C82.9994 39.2868 82.5347 39.432 82.1198 39.681C81.7049 39.905 81.3646 40.1913 81.0991 40.5399C80.8418 40.8884 80.651 41.2867 80.5265 41.7348C80.402 42.1746 80.3398 42.6518 80.3398 43.1663V50H77.3275ZM91.0101 50L96.6613 32.0755H101.055L106.706 50H103.619L98.491 33.9178H99.1632L94.0971 50H91.0101ZM94.1593 46.1164V43.3157H103.57V46.1164H94.1593ZM109.206 34.5152V31.7643H112.206V34.5152H109.206ZM109.206 50V36.5566H112.206V50H109.206Z" fill="url(#paint0_linear_6_16)"/>
<path d="M122.285 50.4891C121.776 49.8968 121.34 49.2261 120.979 48.4769C120.617 47.7321 120.343 46.9503 120.155 46.1315C119.968 45.3127 119.881 44.4982 119.894 43.6881C119.881 42.878 119.968 42.0635 120.155 41.2447C120.343 40.4215 120.617 39.6376 120.979 38.8928C121.34 38.148 121.776 37.4795 122.285 36.8871L123.448 37.7495C122.925 38.381 122.507 39.0191 122.194 39.6637C121.884 40.3083 121.662 40.966 121.527 41.6367C121.392 42.3031 121.323 42.9869 121.318 43.6881C121.323 44.3893 121.392 45.0753 121.527 45.7461C121.667 46.4124 121.891 47.0701 122.2 47.7191C122.509 48.3637 122.925 48.9974 123.448 49.6202L122.285 50.4891ZM124.9 48V38.5923H128.631C129.266 38.5923 129.787 38.7208 130.192 38.9777C130.601 39.2303 130.904 39.5548 131.1 39.9512C131.3 40.3475 131.401 40.7569 131.401 41.1794C131.401 41.6977 131.276 42.1376 131.028 42.4991C130.784 42.8606 130.451 43.1045 130.029 43.2308V42.9041C130.621 43.0392 131.07 43.3201 131.374 43.7469C131.684 44.1738 131.838 44.6594 131.838 45.2038C131.838 45.7613 131.732 46.2491 131.518 46.6672C131.305 47.0854 130.987 47.412 130.564 47.6472C130.146 47.8824 129.628 48 129.009 48H124.9ZM126.494 46.517H128.813C129.088 46.517 129.334 46.4625 129.552 46.3536C129.769 46.2404 129.939 46.0836 130.061 45.8833C130.188 45.6786 130.251 45.4368 130.251 45.1581C130.251 44.9055 130.196 44.679 130.087 44.4786C129.979 44.2783 129.82 44.1193 129.61 44.0017C129.401 43.8798 129.151 43.8188 128.859 43.8188H126.494V46.517ZM126.494 42.3488H128.611C128.837 42.3488 129.04 42.3053 129.218 42.2182C129.397 42.1311 129.539 42.0026 129.643 41.8327C129.748 41.6628 129.8 41.4538 129.8 41.2055C129.8 40.8789 129.695 40.6067 129.486 40.3889C129.277 40.1711 128.985 40.0622 128.611 40.0622H126.494V42.3488ZM136.351 48.196C135.637 48.196 135.009 48.0414 134.469 47.7321C133.929 47.4229 133.507 46.9939 133.202 46.4451C132.901 45.8963 132.751 45.2648 132.751 44.5505C132.751 43.7796 132.899 43.111 133.195 42.5448C133.492 41.9743 133.903 41.5322 134.43 41.2186C134.957 40.905 135.567 40.7482 136.259 40.7482C136.991 40.7482 137.612 40.9202 138.121 41.2643C138.635 41.604 139.016 42.0853 139.265 42.7081C139.513 43.331 139.607 44.0649 139.546 44.9098H137.984V44.3349C137.98 43.5683 137.845 43.0087 137.579 42.6559C137.313 42.3031 136.895 42.1267 136.325 42.1267C135.68 42.1267 135.201 42.327 134.887 42.7277C134.574 43.1241 134.417 43.7055 134.417 44.4721C134.417 45.1864 134.574 45.7395 134.887 46.1315C135.201 46.5235 135.658 46.7195 136.259 46.7195C136.647 46.7195 136.98 46.6346 137.259 46.4647C137.542 46.2905 137.76 46.0401 137.912 45.7134L139.467 46.1838C139.197 46.8197 138.779 47.314 138.213 47.6668C137.651 48.0196 137.03 48.196 136.351 48.196ZM133.921 44.9098V43.7208H138.775V44.9098H133.921ZM145.139 48C144.673 48.0871 144.215 48.1241 143.767 48.1111C143.323 48.1024 142.924 48.0218 142.571 47.8693C142.218 47.7125 141.951 47.4665 141.768 47.1311C141.606 46.8262 141.522 46.5148 141.513 46.1969C141.504 45.8789 141.5 45.5196 141.5 45.1189V38.9843H143.068V45.0274C143.068 45.3105 143.07 45.5588 143.074 45.7722C143.083 45.9856 143.129 46.1598 143.211 46.2948C143.368 46.5562 143.619 46.7021 143.963 46.7326C144.307 46.7631 144.699 46.7456 145.139 46.6803V48ZM140.219 42.179V40.9442H145.139V42.179H140.219ZM148.629 48.196C148.119 48.196 147.688 48.1002 147.335 47.9085C146.983 47.7125 146.715 47.4534 146.532 47.1311C146.353 46.8088 146.264 46.4538 146.264 46.0662C146.264 45.7265 146.321 45.4216 146.434 45.1515C146.547 44.8772 146.721 44.642 146.956 44.446C147.192 44.2456 147.497 44.0823 147.871 43.956C148.154 43.8645 148.485 43.7818 148.864 43.7077C149.247 43.6337 149.661 43.5662 150.105 43.5052C150.554 43.4399 151.022 43.3702 151.51 43.2961L150.948 43.6163C150.953 43.1284 150.844 42.7691 150.622 42.5383C150.399 42.3074 150.025 42.192 149.498 42.192C149.18 42.192 148.873 42.2661 148.577 42.4142C148.281 42.5622 148.074 42.817 147.956 43.1785L146.519 42.7277C146.693 42.1311 147.024 41.652 147.512 41.2905C148.004 40.929 148.666 40.7482 149.498 40.7482C150.125 40.7482 150.676 40.8506 151.151 41.0553C151.63 41.26 151.985 41.5953 152.216 42.0614C152.342 42.3096 152.418 42.5644 152.444 42.8257C152.47 43.0827 152.484 43.3636 152.484 43.6685V48H151.105V46.4712L151.334 46.7195C151.016 47.2291 150.643 47.6037 150.217 47.8432C149.794 48.0784 149.265 48.196 148.629 48.196ZM148.943 46.9416C149.3 46.9416 149.605 46.8785 149.857 46.7522C150.11 46.6259 150.31 46.4712 150.458 46.2883C150.611 46.1054 150.713 45.9333 150.765 45.7722C150.848 45.5718 150.894 45.3432 150.903 45.0862C150.916 44.8249 150.922 44.6137 150.922 44.4525L151.406 44.5962C150.931 44.6703 150.524 44.7356 150.184 44.7922C149.844 44.8488 149.552 44.9033 149.308 44.9556C149.065 45.0035 148.849 45.0579 148.662 45.1189C148.479 45.1842 148.324 45.2604 148.198 45.3475C148.071 45.4347 147.973 45.5348 147.904 45.6481C147.838 45.7613 147.806 45.8941 147.806 46.0466C147.806 46.2208 147.849 46.3754 147.936 46.5104C148.024 46.6411 148.15 46.7456 148.315 46.824C148.485 46.9024 148.694 46.9416 148.943 46.9416ZM154.713 50.4891L153.55 49.6202C154.073 48.9974 154.489 48.3637 154.798 47.7191C155.107 47.0701 155.329 46.4124 155.464 45.7461C155.604 45.0753 155.676 44.3893 155.68 43.6881C155.676 42.9869 155.606 42.3031 155.471 41.6367C155.336 40.966 155.112 40.3083 154.798 39.6637C154.489 39.0191 154.073 38.381 153.55 37.7495L154.713 36.8871C155.223 37.4795 155.658 38.148 156.02 38.8928C156.381 39.6376 156.656 40.4215 156.843 41.2447C157.03 42.0635 157.117 42.878 157.104 43.6881C157.117 44.4982 157.03 45.3127 156.843 46.1315C156.656 46.9503 156.381 47.7321 156.02 48.4769C155.658 49.2261 155.223 49.8968 154.713 50.4891Z" fill="url(#paint1_linear_6_16)"/>
<defs>
<linearGradient id="paint0_linear_6_16" x1="-9.97826" y1="54" x2="176.442" y2="46.7125" gradientUnits="userSpaceOnUse">
<stop stop-color="#FD7820"/>
<stop offset="1" stop-color="#FF1F05"/>
</linearGradient>
<linearGradient id="paint1_linear_6_16" x1="115.593" y1="50" x2="160.563" y2="48.3647" gradientUnits="userSpaceOnUse">
<stop stop-color="#FD7820"/>
<stop offset="1" stop-color="#FF1F05"/>
</linearGradient>
</defs>
</svg>
